# xmcd
#
# Track frame offsets:
#  150
#  11968
#  20404
#  31694
#  44618
#  52353
#  62521
#  74326
#  85578
#  98389
#  111449
#  123441
#  133941
#  144594
#  159997
#  174070
#  187153
#  196762
#  207218
#  218242
#  230056
#  242787
#  255706
#  265184
#
# Disc length: 3683 seconds
#
# Revision: 0
# Processed by: cddbd v1.4PL0 Copyright (c) Steve Scherf et al.
# Submitted via: AltoMP3_Maker 3.0
#
DISCID=5b0e6118
DTITLE=Jim Reeves - The Jim Reeves Collection
DYEAR=1900
DGENRE=
TTITLE0=Welcome to my world
TTITLE1=One dozen roses
TTITLE2=Anna Marie
TTITLE3=Golden memories and Silver tears
TTITLE4=Gypsy feet
TTITLE5=Scarlet ribbons
TTITLE6=Yonder comes a sucker
TTITLE7=According to my heart
TTITLE8=Bimbo
TTITLE9=Have I told you lately that I love you
TTITLE10=Mexican Joe
TTITLE11=Am I losing you
TTITLE12=He'll have to go
TTITLE13=The blizzard
TTITLE14=I fall to pieces
TTITLE15=Distant drums
TTITLE16=The storm
TTITLE17=Memories are made of this
TTITLE18=Make the world go away
TTITLE19=Missing you
TTITLE20=Roses are red
TTITLE21=Four walls
TTITLE22=The Hawaiian wedding song
TTITLE23=What I feel in my heart
EXTD=
EXTT0=
EXTT1=
EXTT2=
EXTT3=
EXTT4=
EXTT5=
EXTT6=
EXTT7=
EXTT8=
EXTT9=
EXTT10=
EXTT11=
EXTT12=
EXTT13=
EXTT14=
EXTT15=
EXTT16=
EXTT17=
EXTT18=
EXTT19=
EXTT20=
EXTT21=
EXTT22=
EXTT23=
PLAYORDER=
